<?xml version="1.0" standalone="no"?>
<!DOCTYPE svg PUBLIC "-//W3C//DTD SVG 20010904//EN"
 "http://www.w3.org/TR/2001/REC-SVG-20010904/DTD/svg10.dtd">
<svg version="1.0" xmlns="http://www.w3.org/2000/svg"
 width="2180.000000pt" height="2400.000000pt" viewBox="0 0 2180.000000 2400.000000"
 preserveAspectRatio="xMidYMid meet">

<g transform="translate(0.000000,2400.000000) scale(0.100000,-0.100000)"
fill="#000000" stroke="none">
<path d="M10710 21529 c-1535 -49 -2985 -790 -3941 -2014 -1052 -1347 -1378
-3115 -878 -4764 199 -654 539 -1278 998 -1831 127 -153 496 -523 646 -646
888 -733 1890 -1134 3040 -1215 211 -15 641 -7 855 16 972 102 1863 452 2635
1034 371 280 754 666 1039 1046 955 1274 1276 2927 870 4474 -249 947 -759
1802 -1481 2483 -723 682 -1649 1154 -2616 1332 -382 71 -754 98 -1167 85z"/>
<path d="M7840 9139 c-1765 -680 -3253 -1932 -4230 -3559 -167 -279 -385 -703
-507 -990 -266 -621 -458 -1271 -567 -1916 -14 -84 -26 -163 -26 -178 l0 -26
8353 0 c4595 0 8356 2 8359 5 5 6 -37 268 -72 441 -218 1090 -664 2152 -1288
3069 -961 1412 -2326 2505 -3901 3126 -68 27 -129 49 -134 49 -6 0 -85 -29
-176 -64 -1219 -470 -2577 -616 -3895 -420 -603 89 -1219 260 -1801 499 -5 2
-57 -14 -115 -36z"/>
</g>
</svg>
