<?xml version="1.0" standalone="no"?>
<!DOCTYPE svg PUBLIC "-//W3C//DTD SVG 20010904//EN"
 "http://www.w3.org/TR/2001/REC-SVG-20010904/DTD/svg10.dtd">
<svg version="1.0" xmlns="http://www.w3.org/2000/svg"
 width="225.000000pt" height="225.000000pt" viewBox="0 0 225.000000 225.000000"
 preserveAspectRatio="xMidYMid meet">

<g transform="translate(0.000000,225.000000) scale(0.100000,-0.100000)"
fill="#000000" stroke="none">
<path d="M1002 2090 c-408 -57 -725 -344 -824 -747 -32 -129 -30 -322 5 -453
93 -355 352 -614 707 -707 136 -36 334 -36 470 0 355 93 614 352 707 707 36
136 36 334 0 470 -93 354 -355 617 -704 706 -106 27 -266 37 -361 24z m926
-637 c45 -106 57 -171 57 -328 0 -177 -18 -254 -90 -395 -110 -213 -309 -375
-541 -442 -114 -33 -343 -33 -457 0 -149 43 -296 131 -398 238 -56 59 -95 112
-88 118 2 2 91 54 198 115 l193 112 45 -42 c24 -22 74 -55 111 -72 61 -29 75
-32 168 -32 95 0 103 2 176 37 90 45 148 103 190 194 36 78 47 190 26 270
l-14 50 190 111 c105 61 196 112 202 112 6 1 21 -20 32 -46z m-673 -68 c173
-84 215 -310 86 -458 -40 -45 -121 -86 -187 -93 -103 -13 -220 45 -276 137
-155 249 113 544 377 414z"/>
</g>
</svg>
